<svg id="SvgjsSvg1006" width="426" height="313" xmlns="http://www.w3.org/2000/svg" version="1.1" xmlns:xlink="http://www.w3.org/1999/xlink" xmlns:svgjs="http://svgjs.com/svgjs"><defs id="SvgjsDefs1007"><marker id="SvgjsMarker1040" markerWidth="16" markerHeight="12" refX="16" refY="6" viewBox="0 0 16 12" orient="auto" markerUnits="userSpaceOnUse" stroke-dasharray="0,0"><path id="SvgjsPath1041" d="M0,2 L14,6 L0,11 L0,2" fill="#323232" stroke="#323232" stroke-width="2"></path></marker><marker id="SvgjsMarker1044" markerWidth="16" markerHeight="12" refX="16" refY="6" viewBox="0 0 16 12" orient="auto" markerUnits="userSpaceOnUse" stroke-dasharray="0,0"><path id="SvgjsPath1045" d="M0,2 L14,6 L0,11 L0,2" fill="#323232" stroke="#323232" stroke-width="2"></path></marker></defs><g id="SvgjsG1008" transform="translate(25,25)"><path id="SvgjsPath1009" d="M 0 0L 155 0L 155 65L 0 65Z" stroke="rgba(50,50,50,1)" stroke-width="2" fill-opacity="1" fill="#ffffff"></path><g id="SvgjsG1010"><text id="SvgjsText1011" font-family="微软雅黑" text-anchor="middle" font-size="20px" width="135px" fill="#323232" font-weight="400" align="middle" anchor="middle" family="微软雅黑" size="20px" weight="400" font-style="" opacity="1" y="17" transform="rotate(0)"><tspan id="SvgjsTspan1012" dy="25" x="77.5"><tspan id="SvgjsTspan1013" style="text-decoration:;">Indices</tspan></tspan></text></g></g><g id="SvgjsG1014" transform="translate(246,25)"><path id="SvgjsPath1015" d="M 0 0L 155 0L 155 65L 0 65Z" stroke="rgba(50,50,50,1)" stroke-width="2" fill-opacity="1" fill="#ffffff"></path><g id="SvgjsG1016"><text id="SvgjsText1017" font-family="微软雅黑" text-anchor="middle" font-size="20px" width="135px" fill="#323232" font-weight="400" align="middle" anchor="middle" family="微软雅黑" size="20px" weight="400" font-style="" opacity="1" y="17" transform="rotate(0)"><tspan id="SvgjsTspan1018" dy="25" x="77.5"><tspan id="SvgjsTspan1019" style="text-decoration:;">Index</tspan></tspan></text></g></g><g id="SvgjsG1020" transform="translate(25,135)"><path id="SvgjsPath1021" d="M 0 0L 155 0L 155 65L 0 65Z" stroke="rgba(50,50,50,1)" stroke-width="2" fill-opacity="1" fill="#ffffff"></path><g id="SvgjsG1022"><text id="SvgjsText1023" font-family="微软雅黑" text-anchor="middle" font-size="20px" width="135px" fill="#323232" font-weight="400" align="middle" anchor="middle" family="微软雅黑" size="20px" weight="400" font-style="" opacity="1" y="17" transform="rotate(0)"><tspan id="SvgjsTspan1024" dy="25" x="77.5"><tspan id="SvgjsTspan1025" style="text-decoration:;">Indexers</tspan></tspan></text></g></g><g id="SvgjsG1026" transform="translate(246,135)"><path id="SvgjsPath1027" d="M 0 0L 155 0L 155 65L 0 65Z" stroke="rgba(50,50,50,1)" stroke-width="2" fill-opacity="1" fill="#ffffff"></path><g id="SvgjsG1028"><text id="SvgjsText1029" font-family="微软雅黑" text-anchor="middle" font-size="20px" width="135px" fill="#323232" font-weight="400" align="middle" anchor="middle" family="微软雅黑" size="20px" weight="400" font-style="" opacity="1" y="17" transform="rotate(0)"><tspan id="SvgjsTspan1030" dy="25" x="77.5"><tspan id="SvgjsTspan1031" style="text-decoration:;">IndexFunc</tspan></tspan></text></g></g><g id="SvgjsG1032" transform="translate(25,241)"><path id="SvgjsPath1033" d="M 0 0L 376 0L 376 47L 0 47Z" stroke="rgba(50,50,50,1)" stroke-width="2" fill-opacity="1" fill="#ffffff"></path><g id="SvgjsG1034"><text id="SvgjsText1035" font-family="微软雅黑" text-anchor="middle" font-size="20px" width="356px" fill="#323232" font-weight="400" align="middle" anchor="middle" family="微软雅黑" size="20px" weight="400" font-style="" opacity="1" y="8" transform="rotate(0)"><tspan id="SvgjsTspan1036" dy="25" x="188"><tspan id="SvgjsTspan1037" style="text-decoration:;">ThreadSafeStore</tspan></tspan></text></g></g><g id="SvgjsG1038"><path id="SvgjsPath1039" d="M180 57.5L213 57.5L213 57.5L246 57.5" stroke="#323232" stroke-width="2" fill="none" marker-end="url(#SvgjsMarker1040)"></path></g><g id="SvgjsG1042"><path id="SvgjsPath1043" d="M180 167.5L213 167.5L213 167.5L246 167.5" stroke="#323232" stroke-width="2" fill="none" marker-end="url(#SvgjsMarker1044)"></path></g></svg>