<svg id="SvgjsSvg1006" width="614" height="447" xmlns="http://www.w3.org/2000/svg" version="1.1" xmlns:xlink="http://www.w3.org/1999/xlink" xmlns:svgjs="http://svgjs.com/svgjs"><defs id="SvgjsDefs1007"><marker id="SvgjsMarker1026" markerWidth="16" markerHeight="12" refX="16" refY="6" viewBox="0 0 16 12" orient="auto" markerUnits="userSpaceOnUse" stroke-dasharray="0,0"><path id="SvgjsPath1027" d="M0,2 L14,6 L0,11 L0,2" fill="#323232" stroke="#323232" stroke-width="2"></path></marker><marker id="SvgjsMarker1048" markerWidth="16" markerHeight="12" refX="16" refY="6" viewBox="0 0 16 12" orient="auto" markerUnits="userSpaceOnUse" stroke-dasharray="0,0"><path id="SvgjsPath1049" d="M0,2 L14,6 L0,11 L0,2" fill="#323232" stroke="#323232" stroke-width="2"></path></marker><marker id="SvgjsMarker1070" markerWidth="16" markerHeight="12" refX="16" refY="6" viewBox="0 0 16 12" orient="auto" markerUnits="userSpaceOnUse" stroke-dasharray="0,0"><path id="SvgjsPath1071" d="M0,2 L14,6 L0,11 L0,2" fill="#323232" stroke="#323232" stroke-width="2"></path></marker><marker id="SvgjsMarker1074" markerWidth="16" markerHeight="12" refX="16" refY="6" viewBox="0 0 16 12" orient="auto" markerUnits="userSpaceOnUse" stroke-dasharray="0,0"><path id="SvgjsPath1075" d="M0,2 L14,6 L0,11 L0,2" fill="#323232" stroke="#323232" stroke-width="2"></path></marker></defs><g id="SvgjsG1008" transform="matrix(-1.8369701987210297e-16,-1,1,-1.8369701987210297e-16,160.00000000000014,326.0000000000001)"><path id="SvgjsPath1009" d="M 34.95000000000003 0L 200.66666666666688 0C 241.81818181818204 0 241.81818181818204 194 200.66666666666688 194L 34.95000000000003 194C -11.650000000000013 194 -11.650000000000013 0 34.95000000000003 0ZM 200.66666666666688 0C 160.25000000000023 0 160.25000000000023 194 200.66666666666688 194C 160.25000000000023 194 160.25000000000023 0 200.66666666666688 0" stroke="rgba(50,50,50,1)" stroke-width="2" fill-opacity="1" fill="#ffffff"></path><g id="SvgjsG1010"><text id="SvgjsText1011" font-family="微软雅黑" text-anchor="middle" font-size="13px" width="187px" fill="#323232" font-weight="400" align="middle" anchor="middle" family="微软雅黑" size="13px" weight="400" font-style="" opacity="1" y="87.05" transform="rotate(0)"></text></g></g><g id="SvgjsG1012" transform="translate(193,98)"><path id="SvgjsPath1013" d="M 0 0L 120 0L 120 40L 0 40Z" stroke="none" fill="none"></path><g id="SvgjsG1014"><text id="SvgjsText1015" font-family="微软雅黑" text-anchor="middle" font-size="20px" width="120px" fill="#323232" font-weight="700" align="middle" anchor="middle" family="微软雅黑" size="20px" weight="700" font-style="" opacity="1" y="4.5" transform="rotate(0)"><tspan id="SvgjsTspan1016" dy="25" x="60"><tspan id="SvgjsTspan1017" style="text-decoration:;">bucket</tspan></tspan></text></g></g><g id="SvgjsG1018" transform="translate(401,82)"><path id="SvgjsPath1019" d="M 0 0L 188 0L 188 62L 0 62Z" stroke="none" fill="none"></path><g id="SvgjsG1020"><text id="SvgjsText1021" font-family="微软雅黑" text-anchor="middle" font-size="20px" width="188px" fill="#323232" font-weight="400" align="middle" anchor="middle" family="微软雅黑" size="20px" weight="400" font-style="" opacity="1" y="15.5" transform="rotate(0)"><tspan id="SvgjsTspan1022" dy="25" x="94"><tspan id="SvgjsTspan1023" style="text-decoration:;">r：token/sec</tspan></tspan></text></g></g><g id="SvgjsG1024"><path id="SvgjsPath1025" d="M495 82C 416 29 329 25 253 98" stroke="#323232" stroke-width="2" fill="none" marker-end="url(#SvgjsMarker1026)"></path></g><g id="SvgjsG1028" transform="translate(214.5,206)"><path id="SvgjsPath1029" d="M 0 0L 77 0L 77 26L 0 26Z" stroke="rgba(50,50,50,1)" stroke-width="2" fill-opacity="1" fill="#ffffff"></path><g id="SvgjsG1030"><text id="SvgjsText1031" font-family="微软雅黑" text-anchor="middle" font-size="13px" width="57px" fill="#323232" font-weight="700" align="middle" anchor="middle" family="微软雅黑" size="13px" weight="700" font-style="" opacity="1" y="3.05" transform="rotate(0)"><tspan id="SvgjsTspan1032" dy="16" x="38.5"><tspan id="SvgjsTspan1033" style="text-decoration:;">token</tspan></tspan></text></g></g><g id="SvgjsG1034" transform="translate(214.5,232)"><path id="SvgjsPath1035" d="M 0 0L 77 0L 77 26L 0 26Z" stroke="rgba(50,50,50,1)" stroke-width="2" fill-opacity="1" fill="#ffffff"></path><g id="SvgjsG1036"><text id="SvgjsText1037" font-family="微软雅黑" text-anchor="middle" font-size="13px" width="57px" fill="#323232" font-weight="700" align="middle" anchor="middle" family="微软雅黑" size="13px" weight="700" font-style="" opacity="1" y="3.05" transform="rotate(0)"><tspan id="SvgjsTspan1038" dy="16" x="38.5"><tspan id="SvgjsTspan1039" style="text-decoration:;">token</tspan></tspan></text></g></g><g id="SvgjsG1040" transform="translate(214.5,258)"><path id="SvgjsPath1041" d="M 0 0L 77 0L 77 26L 0 26Z" stroke="rgba(50,50,50,1)" stroke-width="2" fill-opacity="1" fill="#ffffff"></path><g id="SvgjsG1042"><text id="SvgjsText1043" font-family="微软雅黑" text-anchor="middle" font-size="13px" width="57px" fill="#323232" font-weight="700" align="middle" anchor="middle" family="微软雅黑" size="13px" weight="700" font-style="" opacity="1" y="3.05" transform="rotate(0)"><tspan id="SvgjsTspan1044" dy="16" x="38.5"><tspan id="SvgjsTspan1045" style="text-decoration:;">token</tspan></tspan></text></g></g><g id="SvgjsG1046"><path id="SvgjsPath1047" d="M253 284C 253 316.8 253 333.2 253 366" stroke="#323232" stroke-width="2" fill="none" marker-end="url(#SvgjsMarker1048)"></path></g><g id="SvgjsG1050" transform="translate(223,366)"><path id="SvgjsPath1051" d="M 0 0L 60 0L 60 28L 0 28Z" stroke="rgba(50,50,50,1)" stroke-width="2" fill-opacity="1" fill="#ffffff"></path><g id="SvgjsG1052"><text id="SvgjsText1053" font-family="微软雅黑" text-anchor="middle" font-size="13px" width="40px" fill="#323232" font-weight="400" align="middle" anchor="middle" family="微软雅黑" size="13px" weight="400" font-style="" opacity="1" y="4.05" transform="rotate(0)"><tspan id="SvgjsTspan1054" dy="16" x="30"><tspan id="SvgjsTspan1055" style="text-decoration:;">token</tspan></tspan></text></g></g><g id="SvgjsG1056" transform="translate(223,394)"><path id="SvgjsPath1057" d="M 0 0L 60 0L 60 28L 0 28Z" stroke="rgba(50,50,50,1)" stroke-width="2" fill-opacity="1" fill="#ffffff"></path><g id="SvgjsG1058"><text id="SvgjsText1059" font-family="微软雅黑" text-anchor="middle" font-size="13px" width="40px" fill="#323232" font-weight="400" align="middle" anchor="middle" family="微软雅黑" size="13px" weight="400" font-style="" opacity="1" y="4.05" transform="rotate(0)"><tspan id="SvgjsTspan1060" dy="16" x="30"><tspan id="SvgjsTspan1061" style="text-decoration:;">item</tspan></tspan></text></g></g><g id="SvgjsG1062" transform="translate(25,382)"><path id="SvgjsPath1063" d="M 0 0L 110 0L 110 30L 0 30Z" stroke="rgba(50,50,50,1)" stroke-width="2" fill-opacity="1" fill="#ffffff"></path><g id="SvgjsG1064"><text id="SvgjsText1065" font-family="微软雅黑" text-anchor="middle" font-size="13px" width="90px" fill="#323232" font-weight="400" align="middle" anchor="middle" family="微软雅黑" size="13px" weight="400" font-style="" opacity="1" y="5.05" transform="rotate(0)"><tspan id="SvgjsTspan1066" dy="16" x="55"><tspan id="SvgjsTspan1067" style="text-decoration:;">item</tspan></tspan></text></g></g><g id="SvgjsG1068"><path id="SvgjsPath1069" d="M152 396C 172.39999999999998 396 182.60000000000002 396 203 396" stroke="#323232" stroke-width="2" fill="none" marker-end="url(#SvgjsMarker1070)"></path></g><g id="SvgjsG1072"><path id="SvgjsPath1073" d="M306 395C 324.4 395 333.6 395 352 395" stroke="#323232" stroke-width="2" fill="none" marker-end="url(#SvgjsMarker1074)"></path></g><g id="SvgjsG1076" transform="translate(373.5000000000002,377)"><path id="SvgjsPath1077" d="M 0 0L 120 0L 120 40L 0 40Z" stroke="none" fill="none"></path><g id="SvgjsG1078"><text id="SvgjsText1079" font-family="微软雅黑" text-anchor="middle" font-size="19px" width="120px" fill="#323232" font-weight="400" align="middle" anchor="middle" family="微软雅黑" size="19px" weight="400" font-style="" opacity="1" y="5.15" transform="rotate(0)"><tspan id="SvgjsTspan1080" dy="23" x="60"><tspan id="SvgjsTspan1081" style="text-decoration:;">accept</tspan></tspan></text></g></g></svg>