<svg id="SvgjsSvg1216" width="669" height="395" xmlns="http://www.w3.org/2000/svg" version="1.1" xmlns:xlink="http://www.w3.org/1999/xlink" xmlns:svgjs="http://svgjs.com/svgjs"><defs id="SvgjsDefs1217"><marker id="SvgjsMarker1277" markerWidth="16" markerHeight="12" refX="16" refY="6" viewBox="0 0 16 12" orient="auto" markerUnits="userSpaceOnUse" stroke-dasharray="0,0"><path id="SvgjsPath1278" d="M0,2 L14,6 L0,11 L0,2" fill="#323232" stroke="#323232" stroke-width="2"></path></marker><marker id="SvgjsMarker1281" markerWidth="16" markerHeight="12" refX="16" refY="6" viewBox="0 0 16 12" orient="auto" markerUnits="userSpaceOnUse" stroke-dasharray="0,0"><path id="SvgjsPath1282" d="M0,2 L14,6 L0,11 L0,2" fill="#323232" stroke="#323232" stroke-width="2"></path></marker><marker id="SvgjsMarker1301" markerWidth="16" markerHeight="12" refX="16" refY="6" viewBox="0 0 16 12" orient="auto" markerUnits="userSpaceOnUse" stroke-dasharray="0,0"><path id="SvgjsPath1302" d="M0,2 L14,6 L0,11 L0,2" fill="#323232" stroke="#323232" stroke-width="2"></path></marker><marker id="SvgjsMarker1305" markerWidth="16" markerHeight="12" refX="16" refY="6" viewBox="0 0 16 12" orient="auto" markerUnits="userSpaceOnUse" stroke-dasharray="0,0"><path id="SvgjsPath1306" d="M0,2 L14,6 L0,11 L0,2" fill="#323232" stroke="#323232" stroke-width="2"></path></marker><marker id="SvgjsMarker1309" markerWidth="16" markerHeight="12" refX="16" refY="6" viewBox="0 0 16 12" orient="auto" markerUnits="userSpaceOnUse" stroke-dasharray="0,0"><path id="SvgjsPath1310" d="M0,2 L14,6 L0,11 L0,2" fill="#323232" stroke="#323232" stroke-width="2"></path></marker><marker id="SvgjsMarker1313" markerWidth="16" markerHeight="12" refX="16" refY="6" viewBox="0 0 16 12" orient="auto" markerUnits="userSpaceOnUse" stroke-dasharray="0,0"><path id="SvgjsPath1314" d="M0,2 L14,6 L0,11 L0,2" fill="#323232" stroke="#323232" stroke-width="2"></path></marker></defs><rect id="SvgjsRect1218" width="669" height="395" fill="#ffffff"></rect><g id="SvgjsG1219" transform="translate(25,208)"><path id="SvgjsPath1220" d="M 0 4Q 0 0 4 0L 108 0Q 112 0 112 4L 112 59Q 112 63 108 63L 4 63Q 0 63 0 59Z" stroke="rgba(50,50,50,1)" stroke-width="2" fill-opacity="1" fill="#ffffff"></path><g id="SvgjsG1221"><text id="SvgjsText1222" font-family="微软雅黑" text-anchor="middle" font-size="13px" width="92px" fill="#323232" font-weight="400" align="middle" anchor="middle" family="微软雅黑" size="13px" weight="400" font-style="" opacity="1" y="21.55" transform="rotate(0)"><tspan id="SvgjsTspan1223" dy="16" x="56"><tspan id="SvgjsTspan1224" style="text-decoration:;">ClientSet</tspan></tspan></text></g></g><g id="SvgjsG1225" transform="translate(222.5,111)"><path id="SvgjsPath1226" d="M 0 4Q 0 0 4 0L 94.5 0Q 98.5 0 98.5 4L 98.5 59Q 98.5 63 94.5 63L 4 63Q 0 63 0 59Z" stroke="rgba(50,50,50,1)" stroke-width="2" fill-opacity="1" fill="#ffffff"></path><g id="SvgjsG1227"><text id="SvgjsText1228" font-family="微软雅黑" text-anchor="middle" font-size="13px" width="79px" fill="#323232" font-weight="400" align="middle" anchor="middle" family="微软雅黑" size="13px" weight="400" font-style="" opacity="1" y="21.55" transform="rotate(0)"><tspan id="SvgjsTspan1229" dy="16" x="49.5"><tspan id="SvgjsTspan1230" style="text-decoration:;">CoreV1</tspan></tspan></text></g></g><g id="SvgjsG1231" transform="translate(222.5,208)"><path id="SvgjsPath1232" d="M 0 4Q 0 0 4 0L 94.5 0Q 98.5 0 98.5 4L 98.5 59Q 98.5 63 94.5 63L 4 63Q 0 63 0 59Z" stroke="rgba(50,50,50,1)" stroke-width="2" fill-opacity="1" fill="#ffffff"></path><g id="SvgjsG1233"><text id="SvgjsText1234" font-family="微软雅黑" text-anchor="middle" font-size="13px" width="79px" fill="#323232" font-weight="400" align="middle" anchor="middle" family="微软雅黑" size="13px" weight="400" font-style="" opacity="1" y="21.55" transform="rotate(0)"><tspan id="SvgjsTspan1235" dy="16" x="49.5"><tspan id="SvgjsTspan1236" style="text-decoration:;">AppsV1</tspan></tspan></text></g></g><g id="SvgjsG1237" transform="translate(222.5,307)"><path id="SvgjsPath1238" d="M 0 4Q 0 0 4 0L 94.5 0Q 98.5 0 98.5 4L 98.5 59Q 98.5 63 94.5 63L 4 63Q 0 63 0 59Z" stroke="rgba(50,50,50,1)" stroke-width="2" fill-opacity="1" fill="#ffffff"></path><g id="SvgjsG1239"><text id="SvgjsText1240" font-family="微软雅黑" text-anchor="middle" font-size="13px" width="79px" fill="#323232" font-weight="400" align="middle" anchor="middle" family="微软雅黑" size="13px" weight="400" font-style="" opacity="1" y="21.55" transform="rotate(0)"><tspan id="SvgjsTspan1241" dy="16" x="49.5"><tspan id="SvgjsTspan1242" style="text-decoration:;">。。。</tspan></tspan></text></g></g><g id="SvgjsG1243" transform="translate(427,108)"><path id="SvgjsPath1244" d="M 0 4Q 0 0 4 0L 87 0Q 91 0 91 4L 91 92Q 91 96 87 96L 4 96Q 0 96 0 92Z" stroke="rgba(50,50,50,1)" stroke-width="2" fill-opacity="1" fill="#ffffff"></path><path id="SvgjsPath1245" d="M 0 30L 91 30" stroke="rgba(50,50,50,1)" stroke-width="2" fill="none"></path><path id="SvgjsPath1246" d="M 0 0L 91 0L 91 96L 0 96Z" stroke="none" fill="none"></path><g id="SvgjsG1247"><text id="SvgjsText1248" font-family="微软雅黑" text-anchor="middle" font-size="13px" width="71px" fill="#323232" font-weight="700" align="middle" anchor="middle" family="微软雅黑" size="13px" weight="700" font-style="" opacity="1" y="5.05" transform="rotate(0)"><tspan id="SvgjsTspan1249" dy="16" x="45.5"><tspan id="SvgjsTspan1250" style="text-decoration:;">Services</tspan></tspan></text></g><g id="SvgjsG1251"><text id="SvgjsText1252" font-family="微软雅黑" text-anchor="start" font-size="13px" width="71px" fill="#323232" font-weight="400" align="middle" anchor="start" family="微软雅黑" size="13px" weight="400" font-style="" opacity="1" y="37.05" transform="rotate(0)"><tspan id="SvgjsTspan1253" dy="16" x="10"><tspan id="SvgjsTspan1254" style="text-decoration:;">Create</tspan></tspan><tspan id="SvgjsTspan1255" dy="16" x="10"><tspan id="SvgjsTspan1256" style="text-decoration:;">List</tspan></tspan><tspan id="SvgjsTspan1257" dy="16" x="10"><tspan id="SvgjsTspan1258" style="text-decoration:;">...</tspan></tspan></text></g></g><g id="SvgjsG1259" transform="translate(553,108)"><path id="SvgjsPath1260" d="M 0 4Q 0 0 4 0L 87 0Q 91 0 91 4L 91 92Q 91 96 87 96L 4 96Q 0 96 0 92Z" stroke="rgba(50,50,50,1)" stroke-width="2" fill-opacity="1" fill="#ffffff"></path><path id="SvgjsPath1261" d="M 0 30L 91 30" stroke="rgba(50,50,50,1)" stroke-width="2" fill="none"></path><path id="SvgjsPath1262" d="M 0 0L 91 0L 91 96L 0 96Z" stroke="none" fill="none"></path><g id="SvgjsG1263"><text id="SvgjsText1264" font-family="微软雅黑" text-anchor="middle" font-size="13px" width="71px" fill="#323232" font-weight="700" align="middle" anchor="middle" family="微软雅黑" size="13px" weight="700" font-style="" opacity="1" y="5.05" transform="rotate(0)"><tspan id="SvgjsTspan1265" dy="16" x="45.5"><tspan id="SvgjsTspan1266" style="text-decoration:;">Pods</tspan></tspan></text></g><g id="SvgjsG1267"><text id="SvgjsText1268" font-family="微软雅黑" text-anchor="start" font-size="13px" width="71px" fill="#323232" font-weight="400" align="middle" anchor="start" family="微软雅黑" size="13px" weight="400" font-style="" opacity="1" y="37.05" transform="rotate(0)"><tspan id="SvgjsTspan1269" dy="16" x="10"><tspan id="SvgjsTspan1270" style="text-decoration:;">Create</tspan></tspan><tspan id="SvgjsTspan1271" dy="16" x="10"><tspan id="SvgjsTspan1272" style="text-decoration:;">List</tspan></tspan><tspan id="SvgjsTspan1273" dy="16" x="10"><tspan id="SvgjsTspan1274" style="text-decoration:;">...</tspan></tspan></text></g></g><g id="SvgjsG1275"><path id="SvgjsPath1276" d="M321 142.5C 383.1514279803771 142.5 472.5 45.84857201962291 472.5 108" stroke="#323232" stroke-width="2" fill="none" marker-end="url(#SvgjsMarker1277)"></path></g><g id="SvgjsG1279"><path id="SvgjsPath1280" d="M321 142.5C 379 95 517 25 598.5 108" stroke="#323232" stroke-width="2" fill="none" marker-end="url(#SvgjsMarker1281)"></path></g><g id="SvgjsG1283" transform="translate(452,253)"><path id="SvgjsPath1284" d="M 0 4Q 0 0 4 0L 97 0Q 101 0 101 4L 101 88Q 101 92 97 92L 4 92Q 0 92 0 88Z" stroke="rgba(50,50,50,1)" stroke-width="2" fill-opacity="1" fill="#ffffff"></path><path id="SvgjsPath1285" d="M 0 32L 101 32" stroke="rgba(50,50,50,1)" stroke-width="2" fill="none"></path><path id="SvgjsPath1286" d="M 0 0L 101 0L 101 92L 0 92Z" stroke="none" fill="none"></path><g id="SvgjsG1287"><text id="SvgjsText1288" font-family="微软雅黑" text-anchor="middle" font-size="13px" width="81px" fill="#323232" font-weight="700" align="middle" anchor="middle" family="微软雅黑" size="13px" weight="700" font-style="" opacity="1" y="6.05" transform="rotate(0)"><tspan id="SvgjsTspan1289" dy="16" x="50.5"><tspan id="SvgjsTspan1290" style="text-decoration:;">DaemonSet</tspan></tspan></text></g><g id="SvgjsG1291"><text id="SvgjsText1292" font-family="微软雅黑" text-anchor="start" font-size="13px" width="81px" fill="#323232" font-weight="400" align="middle" anchor="start" family="微软雅黑" size="13px" weight="400" font-style="" opacity="1" y="36.05" transform="rotate(0)"><tspan id="SvgjsTspan1293" dy="16" x="10"><tspan id="SvgjsTspan1294" style="text-decoration:;">Create</tspan></tspan><tspan id="SvgjsTspan1295" dy="16" x="10"><tspan id="SvgjsTspan1296" style="text-decoration:;">List</tspan></tspan><tspan id="SvgjsTspan1297" dy="16" x="10"><tspan id="SvgjsTspan1298" style="text-decoration:;">...</tspan></tspan></text></g></g><g id="SvgjsG1299"><path id="SvgjsPath1300" d="M321 239.5C 393.80054944847603 239.5 483 200 502.5 253" stroke="#323232" stroke-width="2" fill="none" marker-end="url(#SvgjsMarker1301)"></path></g><g id="SvgjsG1303"><path id="SvgjsPath1304" d="M137 239.5C 188.72117554735198 239.5 170.77882445264802 142.5 222.5 142.5" stroke="#323232" stroke-width="2" fill="none" marker-end="url(#SvgjsMarker1305)"></path></g><g id="SvgjsG1307"><path id="SvgjsPath1308" d="M137 239.5C 171.2 239.5 188.3 239.5 222.5 239.5" stroke="#323232" stroke-width="2" fill="none" marker-end="url(#SvgjsMarker1309)"></path></g><g id="SvgjsG1311"><path id="SvgjsPath1312" d="M137 239.5C 189.32399067349508 239.5 170.17600932650492 338.5 222.5 338.5" stroke="#323232" stroke-width="2" fill="none" marker-end="url(#SvgjsMarker1313)"></path></g></svg>