<svg id="SvgjsSvg1315" width="252" height="370" xmlns="http://www.w3.org/2000/svg" version="1.1" xmlns:xlink="http://www.w3.org/1999/xlink" xmlns:svgjs="http://svgjs.com/svgjs"><defs id="SvgjsDefs1316"><marker id="SvgjsMarker1342" markerWidth="16" markerHeight="12" refX="16" refY="6" viewBox="0 0 16 12" orient="auto" markerUnits="userSpaceOnUse" stroke-dasharray="0,0"><path id="SvgjsPath1343" d="M0,2 L14,6 L0,11 L0,2" fill="#323232" stroke="#323232" stroke-width="2"></path></marker><marker id="SvgjsMarker1350" markerWidth="16" markerHeight="12" refX="16" refY="6" viewBox="0 0 16 12" orient="auto" markerUnits="userSpaceOnUse" stroke-dasharray="0,0"><path id="SvgjsPath1351" d="M0,2 L14,6 L0,11 L0,2" fill="#323232" stroke="#323232" stroke-width="2"></path></marker><marker id="SvgjsMarker1358" markerWidth="16" markerHeight="12" refX="16" refY="6" viewBox="0 0 16 12" orient="auto" markerUnits="userSpaceOnUse" stroke-dasharray="0,0"><path id="SvgjsPath1359" d="M0,2 L14,6 L0,11 L0,2" fill="#323232" stroke="#323232" stroke-width="2"></path></marker><marker id="SvgjsMarker1366" markerWidth="16" markerHeight="12" refX="16" refY="6" viewBox="0 0 16 12" orient="auto" markerUnits="userSpaceOnUse" stroke-dasharray="0,0"><path id="SvgjsPath1367" d="M0,2 L14,6 L0,11 L0,2" fill="#323232" stroke="#323232" stroke-width="2"></path></marker><marker id="SvgjsMarker1374" markerWidth="16" markerHeight="12" refX="0" refY="6" viewBox="0 0 16 12" orient="auto" markerUnits="userSpaceOnUse" stroke-dasharray="0,0"><path id="SvgjsPath1375" d="M15,1.5 L2,6 L15,10.5" fill="#323232" stroke="#323232" stroke-width="2"></path></marker><marker id="SvgjsMarker1376" markerWidth="16" markerHeight="12" refX="16" refY="6" viewBox="0 0 16 12" orient="auto" markerUnits="userSpaceOnUse" stroke-dasharray="0,0"><path id="SvgjsPath1377" d="M0,2 L14,6 L0,11 L0,2" fill="#323232" stroke="#323232" stroke-width="2"></path></marker></defs><rect id="SvgjsRect1317" width="252" height="370" fill="#ffffff"></rect><g id="SvgjsG1318" transform="translate(25,25)"><path id="SvgjsPath1319" d="M 0 4Q 0 0 4 0L 198 0Q 202 0 202 4L 202 35Q 202 39 198 39L 4 39Q 0 39 0 35Z" stroke="rgba(50,50,50,1)" stroke-width="2" fill-opacity="1" fill="#ffffff"></path><g id="SvgjsG1320"><text id="SvgjsText1321" font-family="微软雅黑" text-anchor="middle" font-size="13px" width="182px" fill="#323232" font-weight="400" align="middle" anchor="middle" family="微软雅黑" size="13px" weight="400" font-style="" opacity="1" y="9.55" transform="rotate(0)"><tspan id="SvgjsTspan1322" dy="16" x="101"><tspan id="SvgjsTspan1323" style="text-decoration:;">Kubernetes API Server</tspan></tspan></text></g></g><g id="SvgjsG1324" transform="translate(25,304)"><path id="SvgjsPath1325" d="M 0 4Q 0 0 4 0L 198 0Q 202 0 202 4L 202 37Q 202 41 198 41L 4 41Q 0 41 0 37Z" stroke="rgba(50,50,50,1)" stroke-width="2" fill-opacity="1" fill="#ffffff"></path><g id="SvgjsG1326"><text id="SvgjsText1327" font-family="微软雅黑" text-anchor="middle" font-size="13px" width="182px" fill="#323232" font-weight="400" align="middle" anchor="middle" family="微软雅黑" size="13px" weight="400" font-style="" opacity="1" y="10.55" transform="rotate(0)"><tspan id="SvgjsTspan1328" dy="16" x="101"><tspan id="SvgjsTspan1329" style="text-decoration:;">DiscoveryClient</tspan></tspan></text></g></g><g id="SvgjsG1330" transform="matrix(-1.8369701987210297e-16,-1,1,-1.8369701987210297e-16,57.999999999999986,218.00000000000017)"><path id="SvgjsPath1331" d="M 12.900000000000016 0L 63.333333333333414 0C 92.1818181818183 0 92.1818181818183 136.00000000000017 63.333333333333414 136.00000000000017L 12.900000000000016 136.00000000000017C -4.300000000000006 136.00000000000017 -4.300000000000006 0 12.900000000000016 0ZM 63.333333333333414 0C 35.00000000000005 0 35.00000000000005 136.00000000000017 63.333333333333414 136.00000000000017C 35.00000000000005 136.00000000000017 35.00000000000005 0 63.333333333333414 0" stroke="rgba(50,50,50,1)" stroke-width="2" fill-opacity="1" fill="#ffffff"></path><g id="SvgjsG1332"><text id="SvgjsText1333" font-family="微软雅黑" text-anchor="middle" font-size="13px" width="69px" fill="#323232" font-weight="400" align="middle" anchor="middle" family="微软雅黑" size="13px" weight="400" font-style="" opacity="1" y="58.05000000000008" transform="rotate(0)"></text></g></g><g id="SvgjsG1334" transform="translate(81,173)"><path id="SvgjsPath1335" d="M 0 0L 90 0L 90 37L 0 37Z" stroke="none" fill="none"></path><g id="SvgjsG1336"><text id="SvgjsText1337" font-family="微软雅黑" text-anchor="middle" font-size="13px" width="90px" fill="#323232" font-weight="400" align="middle" anchor="middle" family="微软雅黑" size="13px" weight="400" font-style="" opacity="1" y="8.55" transform="rotate(0)"><tspan id="SvgjsTspan1338" dy="16" x="45"><tspan id="SvgjsTspan1339" style="text-decoration:;">Cache</tspan></tspan></text></g></g><g id="SvgjsG1340"><path id="SvgjsPath1341" d="M81.81173331571767 137.7614807840235C 73.90064484878098 108.2368966822437 66 93.56609865708685 66 63" stroke="#323232" stroke-width="2" fill="none" marker-end="url(#SvgjsMarker1342)"></path><rect id="SvgjsRect1344" width="34" height="16" x="53.93920848275758" y="92.7713083502519" fill="#ffffff"></rect><text id="SvgjsText1345" font-family="微软雅黑" text-anchor="middle" font-size="13px" width="34px" fill="#323232" font-weight="400" align="top" anchor="middle" family="微软雅黑" size="13px" weight="400" font-style="" opacity="1" y="90.8213083502519" transform="rotate(0)"><tspan id="SvgjsTspan1346" dy="16" x="70.93920848275758"><tspan id="SvgjsTspan1347" style="text-decoration:;">（2）</tspan></tspan></text></g><g id="SvgjsG1348"><path id="SvgjsPath1349" d="M49 304C 49 266.03640760792797 72.58133954109348 251.40203236689564 79.1736481776669 214.0151922469878" stroke="#323232" stroke-width="2" fill="none" marker-end="url(#SvgjsMarker1350)"></path><rect id="SvgjsRect1352" width="34" height="16" x="44.61470835011842" y="250.79131402143236" fill="#ffffff"></rect><text id="SvgjsText1353" font-family="微软雅黑" text-anchor="middle" font-size="13px" width="34px" fill="#323232" font-weight="400" align="top" anchor="middle" family="微软雅黑" size="13px" weight="400" font-style="" opacity="1" y="248.84131402143237" transform="rotate(0)"><tspan id="SvgjsTspan1354" dy="16" x="61.61470835011842"><tspan id="SvgjsTspan1355" style="text-decoration:;">（1）</tspan></tspan></text></g><g id="SvgjsG1356"><path id="SvgjsPath1357" d="M179 64C 179 94.73037200849728 188.48434580882042 111.94197405196701 177.97393957002305 140.81907786235774" stroke="#323232" stroke-width="2" fill="none" marker-end="url(#SvgjsMarker1358)"></path><rect id="SvgjsRect1360" width="34" height="16" x="165.42837212456055" y="95.10451450546883" fill="#ffffff"></rect><text id="SvgjsText1361" font-family="微软雅黑" text-anchor="middle" font-size="13px" width="34px" fill="#323232" font-weight="400" align="top" anchor="middle" family="微软雅黑" size="13px" weight="400" font-style="" opacity="1" y="93.15451450546882" transform="rotate(0)"><tspan id="SvgjsTspan1362" dy="16" x="182.42837212456055"><tspan id="SvgjsTspan1363" style="text-decoration:;">（3）</tspan></tspan></text></g><g id="SvgjsG1364"><path id="SvgjsPath1365" d="M126 218C 126 253.41073283624615 105 268.58926716375385 105 304" stroke="#323232" stroke-width="2" fill="none" marker-end="url(#SvgjsMarker1366)"></path><rect id="SvgjsRect1368" width="34" height="16" x="98.5" y="253" fill="#ffffff"></rect><text id="SvgjsText1369" font-family="微软雅黑" text-anchor="middle" font-size="13px" width="34px" fill="#323232" font-weight="400" align="top" anchor="middle" family="微软雅黑" size="13px" weight="400" font-style="" opacity="1" y="251.05" transform="rotate(0)"><tspan id="SvgjsTspan1370" dy="16" x="115.5"><tspan id="SvgjsTspan1371" style="text-decoration:;">（4）</tspan></tspan></text></g><g id="SvgjsG1372"><path id="SvgjsPath1373" d="M168.8263518223331 215.0151922469878C 175.0176095678355 250.12755973962277 174 268.3459676416665 174 304" stroke="#323232" stroke-width="2" fill="none" marker-start="url(#SvgjsMarker1374)" marker-end="url(#SvgjsMarker1376)"></path><rect id="SvgjsRect1378" width="34" height="16" x="156.73489756572997" y="251.30447179885698" fill="#ffffff"></rect><text id="SvgjsText1379" font-family="微软雅黑" text-anchor="middle" font-size="13px" width="34px" fill="#323232" font-weight="400" align="top" anchor="middle" family="微软雅黑" size="13px" weight="400" font-style="" opacity="1" y="249.354471798857" transform="rotate(0)"><tspan id="SvgjsTspan1380" dy="16" x="173.73489756572997"><tspan id="SvgjsTspan1381" style="text-decoration:;">（5）</tspan></tspan></text></g></svg>